<mxfile host="app.diagrams.net" modified="2021-05-18T12:33:03.161Z" agent="5.0 (Windows NT 10.0; Win64; x64) AppleWebKit/537.36 (KHTML, like Gecko) Chrome/90.0.4430.212 Safari/537.36" etag="6IcMcw-_b8pbgL4jTcdi" version="14.6.13" type="github">
  <diagram id="gxW04yGxwX5Pmfec8hz8" name="Page-1">
    <mxGraphModel dx="1422" dy="362" grid="0" gridSize="10" guides="1" tooltips="1" connect="1" arrows="1" fold="1" page="0" pageScale="1" pageWidth="827" pageHeight="1169" math="0" shadow="0">
      <root>
        <mxCell id="0" />
        <mxCell id="1" parent="0" />
        <mxCell id="8fI-mE4RS12vCGjMhUKt-23" value="" style="rounded=0;whiteSpace=wrap;html=1;fillColor=#ffffff;fontSize=17;strokeWidth=2;" parent="1" vertex="1">
          <mxGeometry x="210" y="620" width="430" height="130" as="geometry" />
        </mxCell>
        <mxCell id="8fI-mE4RS12vCGjMhUKt-24" value="&lt;b style=&quot;font-size: 17px;&quot;&gt;spirent testcenter&lt;/b&gt;" style="text;html=1;strokeColor=none;fillColor=none;align=center;verticalAlign=middle;whiteSpace=wrap;rounded=0;fontSize=17;strokeWidth=2;" parent="1" vertex="1">
          <mxGeometry x="189.82999999999998" y="620" width="200" height="20" as="geometry" />
        </mxCell>
        <mxCell id="8fI-mE4RS12vCGjMhUKt-28" value="" style="rounded=0;whiteSpace=wrap;html=1;fillColor=#ffffff;fontSize=17;strokeWidth=2;" parent="1" vertex="1">
          <mxGeometry x="239.88" y="720" width="50.12" height="30" as="geometry" />
        </mxCell>
        <mxCell id="8fI-mE4RS12vCGjMhUKt-33" value="" style="endArrow=none;html=1;fontSize=17;strokeWidth=2;" parent="1" edge="1">
          <mxGeometry width="50" height="50" relative="1" as="geometry">
            <mxPoint x="251.95" y="750" as="sourcePoint" />
            <mxPoint x="251.95" y="740" as="targetPoint" />
          </mxGeometry>
        </mxCell>
        <mxCell id="8fI-mE4RS12vCGjMhUKt-34" value="" style="endArrow=none;html=1;fontSize=17;strokeWidth=2;" parent="1" edge="1">
          <mxGeometry width="50" height="50" relative="1" as="geometry">
            <mxPoint x="260" y="750" as="sourcePoint" />
            <mxPoint x="260.01" y="740" as="targetPoint" />
          </mxGeometry>
        </mxCell>
        <mxCell id="8fI-mE4RS12vCGjMhUKt-36" value="" style="endArrow=none;html=1;fontSize=17;strokeWidth=2;" parent="1" edge="1">
          <mxGeometry width="50" height="50" relative="1" as="geometry">
            <mxPoint x="268" y="750" as="sourcePoint" />
            <mxPoint x="268.01" y="740" as="targetPoint" />
          </mxGeometry>
        </mxCell>
        <mxCell id="8fI-mE4RS12vCGjMhUKt-37" value="" style="endArrow=none;html=1;fontSize=17;strokeWidth=2;" parent="1" edge="1">
          <mxGeometry width="50" height="50" relative="1" as="geometry">
            <mxPoint x="276" y="750" as="sourcePoint" />
            <mxPoint x="276.01" y="740" as="targetPoint" />
          </mxGeometry>
        </mxCell>
        <mxCell id="8fI-mE4RS12vCGjMhUKt-39" value="" style="endArrow=none;html=1;fontSize=17;strokeWidth=2;" parent="1" edge="1">
          <mxGeometry width="50" height="50" relative="1" as="geometry">
            <mxPoint x="244.88" y="750.0000000000001" as="sourcePoint" />
            <mxPoint x="244.88" y="740.0000000000001" as="targetPoint" />
          </mxGeometry>
        </mxCell>
        <mxCell id="8fI-mE4RS12vCGjMhUKt-41" value="" style="rounded=0;whiteSpace=wrap;html=1;fillColor=#ffffff;fontSize=17;strokeWidth=2;" parent="1" vertex="1">
          <mxGeometry x="254.94" y="710" width="20" height="10" as="geometry" />
        </mxCell>
        <mxCell id="8fI-mE4RS12vCGjMhUKt-92" value="&lt;font style=&quot;font-size: 14px;&quot;&gt;端口1&lt;/font&gt;" style="text;html=1;strokeColor=none;fillColor=none;align=center;verticalAlign=middle;whiteSpace=wrap;rounded=0;fontSize=14;strokeWidth=2;" parent="1" vertex="1">
          <mxGeometry x="210" y="675" width="110" height="20" as="geometry" />
        </mxCell>
        <mxCell id="8fI-mE4RS12vCGjMhUKt-93" value="&lt;font style=&quot;font-size: 14px;&quot;&gt;端口2&lt;/font&gt;" style="text;html=1;strokeColor=none;fillColor=none;align=center;verticalAlign=middle;whiteSpace=wrap;rounded=0;fontSize=14;strokeWidth=2;" parent="1" vertex="1">
          <mxGeometry x="290" y="675" width="110" height="20" as="geometry" />
        </mxCell>
        <mxCell id="8fI-mE4RS12vCGjMhUKt-94" value="&lt;span style=&quot;font-size: 14px;&quot;&gt;端口3&lt;/span&gt;" style="text;html=1;strokeColor=none;fillColor=none;align=center;verticalAlign=middle;whiteSpace=wrap;rounded=0;fontSize=14;strokeWidth=2;" parent="1" vertex="1">
          <mxGeometry x="369.95" y="675" width="110" height="20" as="geometry" />
        </mxCell>
        <mxCell id="8fI-mE4RS12vCGjMhUKt-95" value="&lt;span style=&quot;font-size: 14px;&quot;&gt;端口4&lt;/span&gt;" style="text;html=1;strokeColor=none;fillColor=none;align=center;verticalAlign=middle;whiteSpace=wrap;rounded=0;fontSize=14;strokeWidth=2;" parent="1" vertex="1">
          <mxGeometry x="450" y="675" width="110" height="20" as="geometry" />
        </mxCell>
        <mxCell id="8fI-mE4RS12vCGjMhUKt-96" value="&lt;span style=&quot;font-size: 14px;&quot;&gt;端口5&lt;/span&gt;" style="text;html=1;strokeColor=none;fillColor=none;align=center;verticalAlign=middle;whiteSpace=wrap;rounded=0;fontSize=14;strokeWidth=2;" parent="1" vertex="1">
          <mxGeometry x="530" y="675" width="110" height="20" as="geometry" />
        </mxCell>
        <mxCell id="8fI-mE4RS12vCGjMhUKt-98" value="" style="endArrow=none;html=1;fontSize=17;strokeWidth=2;" parent="1" edge="1">
          <mxGeometry width="50" height="50" relative="1" as="geometry">
            <mxPoint x="284" y="750" as="sourcePoint" />
            <mxPoint x="284.01" y="740" as="targetPoint" />
          </mxGeometry>
        </mxCell>
        <mxCell id="8fI-mE4RS12vCGjMhUKt-100" value="" style="rounded=0;whiteSpace=wrap;html=1;fillColor=#ffffff;fontSize=17;strokeWidth=2;" parent="1" vertex="1">
          <mxGeometry x="319.83" y="720" width="50.12" height="30" as="geometry" />
        </mxCell>
        <mxCell id="8fI-mE4RS12vCGjMhUKt-101" value="" style="endArrow=none;html=1;fontSize=17;strokeWidth=2;" parent="1" edge="1">
          <mxGeometry width="50" height="50" relative="1" as="geometry">
            <mxPoint x="331.90000000000003" y="750" as="sourcePoint" />
            <mxPoint x="331.90000000000003" y="740" as="targetPoint" />
          </mxGeometry>
        </mxCell>
        <mxCell id="8fI-mE4RS12vCGjMhUKt-102" value="" style="endArrow=none;html=1;fontSize=17;strokeWidth=2;" parent="1" edge="1">
          <mxGeometry width="50" height="50" relative="1" as="geometry">
            <mxPoint x="339.95" y="750" as="sourcePoint" />
            <mxPoint x="339.96" y="740" as="targetPoint" />
          </mxGeometry>
        </mxCell>
        <mxCell id="8fI-mE4RS12vCGjMhUKt-104" value="" style="endArrow=none;html=1;fontSize=17;strokeWidth=2;" parent="1" edge="1">
          <mxGeometry width="50" height="50" relative="1" as="geometry">
            <mxPoint x="347.95" y="750" as="sourcePoint" />
            <mxPoint x="347.96" y="740" as="targetPoint" />
          </mxGeometry>
        </mxCell>
        <mxCell id="8fI-mE4RS12vCGjMhUKt-105" value="" style="endArrow=none;html=1;fontSize=17;strokeWidth=2;" parent="1" edge="1">
          <mxGeometry width="50" height="50" relative="1" as="geometry">
            <mxPoint x="355.95" y="750" as="sourcePoint" />
            <mxPoint x="355.96" y="740" as="targetPoint" />
          </mxGeometry>
        </mxCell>
        <mxCell id="8fI-mE4RS12vCGjMhUKt-106" value="" style="endArrow=none;html=1;fontSize=17;strokeWidth=2;" parent="1" edge="1">
          <mxGeometry width="50" height="50" relative="1" as="geometry">
            <mxPoint x="324.8300000000001" y="750" as="sourcePoint" />
            <mxPoint x="324.8300000000001" y="740" as="targetPoint" />
          </mxGeometry>
        </mxCell>
        <mxCell id="8fI-mE4RS12vCGjMhUKt-107" value="" style="rounded=0;whiteSpace=wrap;html=1;fillColor=#ffffff;fontSize=17;strokeWidth=2;" parent="1" vertex="1">
          <mxGeometry x="334.89" y="710" width="20" height="10" as="geometry" />
        </mxCell>
        <mxCell id="8fI-mE4RS12vCGjMhUKt-108" value="" style="endArrow=none;html=1;fontSize=17;strokeWidth=2;" parent="1" edge="1">
          <mxGeometry width="50" height="50" relative="1" as="geometry">
            <mxPoint x="363.95" y="750" as="sourcePoint" />
            <mxPoint x="363.96" y="740" as="targetPoint" />
          </mxGeometry>
        </mxCell>
        <mxCell id="8fI-mE4RS12vCGjMhUKt-109" value="" style="rounded=0;whiteSpace=wrap;html=1;fillColor=#ffffff;fontSize=17;strokeWidth=2;" parent="1" vertex="1">
          <mxGeometry x="399.94" y="720" width="50.12" height="30" as="geometry" />
        </mxCell>
        <mxCell id="8fI-mE4RS12vCGjMhUKt-110" value="" style="endArrow=none;html=1;fontSize=17;strokeWidth=2;" parent="1" edge="1">
          <mxGeometry width="50" height="50" relative="1" as="geometry">
            <mxPoint x="412.01000000000005" y="750" as="sourcePoint" />
            <mxPoint x="412.01000000000005" y="740" as="targetPoint" />
          </mxGeometry>
        </mxCell>
        <mxCell id="8fI-mE4RS12vCGjMhUKt-111" value="" style="endArrow=none;html=1;fontSize=17;strokeWidth=2;" parent="1" edge="1">
          <mxGeometry width="50" height="50" relative="1" as="geometry">
            <mxPoint x="420.06" y="750" as="sourcePoint" />
            <mxPoint x="420.07" y="740" as="targetPoint" />
          </mxGeometry>
        </mxCell>
        <mxCell id="8fI-mE4RS12vCGjMhUKt-113" value="" style="endArrow=none;html=1;fontSize=17;strokeWidth=2;" parent="1" edge="1">
          <mxGeometry width="50" height="50" relative="1" as="geometry">
            <mxPoint x="428.06" y="750" as="sourcePoint" />
            <mxPoint x="428.07" y="740" as="targetPoint" />
          </mxGeometry>
        </mxCell>
        <mxCell id="8fI-mE4RS12vCGjMhUKt-114" value="" style="endArrow=none;html=1;fontSize=17;strokeWidth=2;" parent="1" edge="1">
          <mxGeometry width="50" height="50" relative="1" as="geometry">
            <mxPoint x="436.06" y="750" as="sourcePoint" />
            <mxPoint x="436.07" y="740" as="targetPoint" />
          </mxGeometry>
        </mxCell>
        <mxCell id="8fI-mE4RS12vCGjMhUKt-115" value="" style="endArrow=none;html=1;fontSize=17;strokeWidth=2;" parent="1" edge="1">
          <mxGeometry width="50" height="50" relative="1" as="geometry">
            <mxPoint x="404.9400000000001" y="750" as="sourcePoint" />
            <mxPoint x="404.9400000000001" y="740" as="targetPoint" />
          </mxGeometry>
        </mxCell>
        <mxCell id="8fI-mE4RS12vCGjMhUKt-116" value="" style="rounded=0;whiteSpace=wrap;html=1;fillColor=#ffffff;fontSize=17;strokeWidth=2;" parent="1" vertex="1">
          <mxGeometry x="415" y="710" width="20" height="10" as="geometry" />
        </mxCell>
        <mxCell id="8fI-mE4RS12vCGjMhUKt-117" value="" style="endArrow=none;html=1;fontSize=17;strokeWidth=2;" parent="1" edge="1">
          <mxGeometry width="50" height="50" relative="1" as="geometry">
            <mxPoint x="444.06" y="750" as="sourcePoint" />
            <mxPoint x="444.07" y="740" as="targetPoint" />
          </mxGeometry>
        </mxCell>
        <mxCell id="8fI-mE4RS12vCGjMhUKt-118" value="" style="rounded=0;whiteSpace=wrap;html=1;fillColor=#ffffff;fontSize=17;strokeWidth=2;" parent="1" vertex="1">
          <mxGeometry x="480" y="720" width="50.12" height="30" as="geometry" />
        </mxCell>
        <mxCell id="8fI-mE4RS12vCGjMhUKt-119" value="" style="endArrow=none;html=1;fontSize=17;strokeWidth=2;" parent="1" edge="1">
          <mxGeometry width="50" height="50" relative="1" as="geometry">
            <mxPoint x="492.07000000000005" y="750" as="sourcePoint" />
            <mxPoint x="492.07000000000005" y="740" as="targetPoint" />
          </mxGeometry>
        </mxCell>
        <mxCell id="8fI-mE4RS12vCGjMhUKt-120" value="" style="endArrow=none;html=1;fontSize=17;strokeWidth=2;" parent="1" edge="1">
          <mxGeometry width="50" height="50" relative="1" as="geometry">
            <mxPoint x="500.12" y="750" as="sourcePoint" />
            <mxPoint x="500.13" y="740" as="targetPoint" />
          </mxGeometry>
        </mxCell>
        <mxCell id="8fI-mE4RS12vCGjMhUKt-122" value="" style="endArrow=none;html=1;fontSize=17;strokeWidth=2;" parent="1" edge="1">
          <mxGeometry width="50" height="50" relative="1" as="geometry">
            <mxPoint x="508.12" y="750" as="sourcePoint" />
            <mxPoint x="508.13" y="740" as="targetPoint" />
          </mxGeometry>
        </mxCell>
        <mxCell id="8fI-mE4RS12vCGjMhUKt-123" value="" style="endArrow=none;html=1;fontSize=17;strokeWidth=2;" parent="1" edge="1">
          <mxGeometry width="50" height="50" relative="1" as="geometry">
            <mxPoint x="516.12" y="750" as="sourcePoint" />
            <mxPoint x="516.13" y="740" as="targetPoint" />
          </mxGeometry>
        </mxCell>
        <mxCell id="8fI-mE4RS12vCGjMhUKt-124" value="" style="endArrow=none;html=1;fontSize=17;strokeWidth=2;" parent="1" edge="1">
          <mxGeometry width="50" height="50" relative="1" as="geometry">
            <mxPoint x="485.0000000000001" y="750" as="sourcePoint" />
            <mxPoint x="485.0000000000001" y="740" as="targetPoint" />
          </mxGeometry>
        </mxCell>
        <mxCell id="8fI-mE4RS12vCGjMhUKt-125" value="" style="rounded=0;whiteSpace=wrap;html=1;fillColor=#ffffff;fontSize=17;strokeWidth=2;" parent="1" vertex="1">
          <mxGeometry x="495.06" y="710" width="20" height="10" as="geometry" />
        </mxCell>
        <mxCell id="8fI-mE4RS12vCGjMhUKt-126" value="" style="endArrow=none;html=1;fontSize=17;strokeWidth=2;" parent="1" edge="1">
          <mxGeometry width="50" height="50" relative="1" as="geometry">
            <mxPoint x="524.12" y="750" as="sourcePoint" />
            <mxPoint x="524.13" y="740" as="targetPoint" />
          </mxGeometry>
        </mxCell>
        <mxCell id="8fI-mE4RS12vCGjMhUKt-127" value="" style="rounded=0;whiteSpace=wrap;html=1;fillColor=#ffffff;fontSize=17;strokeWidth=2;" parent="1" vertex="1">
          <mxGeometry x="560" y="720" width="50.12" height="30" as="geometry" />
        </mxCell>
        <mxCell id="8fI-mE4RS12vCGjMhUKt-128" value="" style="endArrow=none;html=1;fontSize=17;strokeWidth=2;" parent="1" edge="1">
          <mxGeometry width="50" height="50" relative="1" as="geometry">
            <mxPoint x="572.07" y="750" as="sourcePoint" />
            <mxPoint x="572.07" y="740" as="targetPoint" />
          </mxGeometry>
        </mxCell>
        <mxCell id="8fI-mE4RS12vCGjMhUKt-129" value="" style="endArrow=none;html=1;fontSize=17;strokeWidth=2;" parent="1" edge="1">
          <mxGeometry width="50" height="50" relative="1" as="geometry">
            <mxPoint x="580.12" y="750" as="sourcePoint" />
            <mxPoint x="580.13" y="740" as="targetPoint" />
          </mxGeometry>
        </mxCell>
        <mxCell id="8fI-mE4RS12vCGjMhUKt-131" value="" style="endArrow=none;html=1;fontSize=17;strokeWidth=2;" parent="1" edge="1">
          <mxGeometry width="50" height="50" relative="1" as="geometry">
            <mxPoint x="588.12" y="750" as="sourcePoint" />
            <mxPoint x="588.13" y="740" as="targetPoint" />
          </mxGeometry>
        </mxCell>
        <mxCell id="8fI-mE4RS12vCGjMhUKt-132" value="" style="endArrow=none;html=1;fontSize=17;strokeWidth=2;" parent="1" edge="1">
          <mxGeometry width="50" height="50" relative="1" as="geometry">
            <mxPoint x="596.12" y="750" as="sourcePoint" />
            <mxPoint x="596.13" y="740" as="targetPoint" />
          </mxGeometry>
        </mxCell>
        <mxCell id="8fI-mE4RS12vCGjMhUKt-133" value="" style="endArrow=none;html=1;fontSize=17;strokeWidth=2;" parent="1" edge="1">
          <mxGeometry width="50" height="50" relative="1" as="geometry">
            <mxPoint x="565.0000000000001" y="750" as="sourcePoint" />
            <mxPoint x="565.0000000000001" y="740" as="targetPoint" />
          </mxGeometry>
        </mxCell>
        <mxCell id="8fI-mE4RS12vCGjMhUKt-134" value="" style="rounded=0;whiteSpace=wrap;html=1;fillColor=#ffffff;fontSize=17;strokeWidth=2;" parent="1" vertex="1">
          <mxGeometry x="575.06" y="710" width="20" height="10" as="geometry" />
        </mxCell>
        <mxCell id="8fI-mE4RS12vCGjMhUKt-135" value="" style="endArrow=none;html=1;fontSize=17;strokeWidth=2;" parent="1" edge="1">
          <mxGeometry width="50" height="50" relative="1" as="geometry">
            <mxPoint x="604.12" y="750" as="sourcePoint" />
            <mxPoint x="604.13" y="740" as="targetPoint" />
          </mxGeometry>
        </mxCell>
        <mxCell id="8fI-mE4RS12vCGjMhUKt-136" value="" style="rounded=0;whiteSpace=wrap;html=1;strokeWidth=2;fillColor=#ffffff;fontSize=14;" parent="1" vertex="1">
          <mxGeometry x="210" y="840" width="430" height="150" as="geometry" />
        </mxCell>
        <mxCell id="8fI-mE4RS12vCGjMhUKt-137" value="&lt;b style=&quot;font-size: 17px&quot;&gt;eATS交换机&lt;/b&gt;" style="text;html=1;strokeColor=none;fillColor=none;align=center;verticalAlign=middle;whiteSpace=wrap;rounded=0;fontSize=17;strokeWidth=2;" parent="1" vertex="1">
          <mxGeometry x="169.95" y="960" width="200" height="20" as="geometry" />
        </mxCell>
        <mxCell id="8fI-mE4RS12vCGjMhUKt-138" value="" style="rounded=0;whiteSpace=wrap;html=1;strokeWidth=2;fillColor=#ffffff;fontSize=14;" parent="1" vertex="1">
          <mxGeometry x="239.88" y="840" width="50.12" height="30" as="geometry" />
        </mxCell>
        <mxCell id="8fI-mE4RS12vCGjMhUKt-139" value="" style="rounded=0;whiteSpace=wrap;html=1;strokeWidth=2;fillColor=#ffffff;fontSize=14;" parent="1" vertex="1">
          <mxGeometry x="320" y="840" width="50.12" height="30" as="geometry" />
        </mxCell>
        <mxCell id="8fI-mE4RS12vCGjMhUKt-140" value="" style="rounded=0;whiteSpace=wrap;html=1;strokeWidth=2;fillColor=#ffffff;fontSize=14;" parent="1" vertex="1">
          <mxGeometry x="400" y="840" width="50.12" height="30" as="geometry" />
        </mxCell>
        <mxCell id="8fI-mE4RS12vCGjMhUKt-141" value="" style="rounded=0;whiteSpace=wrap;html=1;strokeWidth=2;fillColor=#ffffff;fontSize=14;" parent="1" vertex="1">
          <mxGeometry x="480" y="840" width="50.12" height="30" as="geometry" />
        </mxCell>
        <mxCell id="8fI-mE4RS12vCGjMhUKt-142" value="" style="rounded=0;whiteSpace=wrap;html=1;strokeWidth=2;fillColor=#ffffff;fontSize=14;" parent="1" vertex="1">
          <mxGeometry x="560" y="840" width="50.12" height="30" as="geometry" />
        </mxCell>
        <mxCell id="8fI-mE4RS12vCGjMhUKt-143" value="" style="endArrow=none;html=1;strokeWidth=2;fontSize=14;exitX=0.5;exitY=0;exitDx=0;exitDy=0;entryX=0.5;entryY=1;entryDx=0;entryDy=0;startArrow=classic;startFill=1;" parent="1" source="8fI-mE4RS12vCGjMhUKt-138" target="8fI-mE4RS12vCGjMhUKt-28" edge="1">
          <mxGeometry width="50" height="50" relative="1" as="geometry">
            <mxPoint x="330" y="760" as="sourcePoint" />
            <mxPoint x="380" y="710" as="targetPoint" />
          </mxGeometry>
        </mxCell>
        <mxCell id="8fI-mE4RS12vCGjMhUKt-144" value="" style="endArrow=none;html=1;strokeWidth=2;fontSize=14;exitX=0.5;exitY=0;exitDx=0;exitDy=0;entryX=0.5;entryY=1;entryDx=0;entryDy=0;startArrow=classic;startFill=1;" parent="1" edge="1">
          <mxGeometry width="50" height="50" relative="1" as="geometry">
            <mxPoint x="344.64000000000004" y="840" as="sourcePoint" />
            <mxPoint x="344.64000000000004" y="750" as="targetPoint" />
          </mxGeometry>
        </mxCell>
        <mxCell id="8fI-mE4RS12vCGjMhUKt-145" value="" style="endArrow=none;html=1;strokeWidth=2;fontSize=14;exitX=0.5;exitY=0;exitDx=0;exitDy=0;entryX=0.5;entryY=1;entryDx=0;entryDy=0;startArrow=classic;startFill=1;" parent="1" edge="1">
          <mxGeometry width="50" height="50" relative="1" as="geometry">
            <mxPoint x="424.64000000000004" y="840" as="sourcePoint" />
            <mxPoint x="424.64000000000004" y="750" as="targetPoint" />
          </mxGeometry>
        </mxCell>
        <mxCell id="8fI-mE4RS12vCGjMhUKt-146" value="" style="endArrow=none;html=1;strokeWidth=2;fontSize=14;exitX=0.5;exitY=0;exitDx=0;exitDy=0;entryX=0.5;entryY=1;entryDx=0;entryDy=0;startArrow=classic;startFill=1;" parent="1" edge="1">
          <mxGeometry width="50" height="50" relative="1" as="geometry">
            <mxPoint x="504.64000000000004" y="840" as="sourcePoint" />
            <mxPoint x="504.64000000000004" y="750" as="targetPoint" />
          </mxGeometry>
        </mxCell>
        <mxCell id="8fI-mE4RS12vCGjMhUKt-147" value="" style="endArrow=none;html=1;strokeWidth=2;fontSize=14;entryX=0.5;entryY=0;entryDx=0;entryDy=0;startArrow=classic;startFill=1;exitX=0.5;exitY=1;exitDx=0;exitDy=0;" parent="1" source="8fI-mE4RS12vCGjMhUKt-127" target="8fI-mE4RS12vCGjMhUKt-142" edge="1">
          <mxGeometry width="50" height="50" relative="1" as="geometry">
            <mxPoint x="560" y="780" as="sourcePoint" />
            <mxPoint x="584.6400000000001" y="750" as="targetPoint" />
          </mxGeometry>
        </mxCell>
        <mxCell id="8fI-mE4RS12vCGjMhUKt-148" value="&lt;font style=&quot;font-size: 14px&quot;&gt;enp15s0&lt;/font&gt;" style="text;html=1;strokeColor=none;fillColor=none;align=center;verticalAlign=middle;whiteSpace=wrap;rounded=0;fontSize=14;strokeWidth=2;" parent="1" vertex="1">
          <mxGeometry x="210" y="880" width="110" height="20" as="geometry" />
        </mxCell>
        <mxCell id="8fI-mE4RS12vCGjMhUKt-149" value="&lt;font style=&quot;font-size: 14px&quot;&gt;enp14s0&lt;/font&gt;" style="text;html=1;strokeColor=none;fillColor=none;align=center;verticalAlign=middle;whiteSpace=wrap;rounded=0;fontSize=14;strokeWidth=2;" parent="1" vertex="1">
          <mxGeometry x="290.06" y="880" width="110" height="20" as="geometry" />
        </mxCell>
        <mxCell id="8fI-mE4RS12vCGjMhUKt-150" value="&lt;font style=&quot;font-size: 14px&quot;&gt;enp13s0&lt;/font&gt;" style="text;html=1;strokeColor=none;fillColor=none;align=center;verticalAlign=middle;whiteSpace=wrap;rounded=0;fontSize=14;strokeWidth=2;" parent="1" vertex="1">
          <mxGeometry x="365" y="880" width="110" height="20" as="geometry" />
        </mxCell>
        <mxCell id="8fI-mE4RS12vCGjMhUKt-151" value="&lt;font style=&quot;font-size: 14px&quot;&gt;enp12s0&lt;/font&gt;" style="text;html=1;strokeColor=none;fillColor=none;align=center;verticalAlign=middle;whiteSpace=wrap;rounded=0;fontSize=14;strokeWidth=2;" parent="1" vertex="1">
          <mxGeometry x="450" y="880" width="110" height="20" as="geometry" />
        </mxCell>
        <mxCell id="8fI-mE4RS12vCGjMhUKt-152" value="&lt;font style=&quot;font-size: 14px&quot;&gt;enp11s0&lt;/font&gt;" style="text;html=1;strokeColor=none;fillColor=none;align=center;verticalAlign=middle;whiteSpace=wrap;rounded=0;fontSize=14;strokeWidth=2;" parent="1" vertex="1">
          <mxGeometry x="530" y="880" width="110" height="20" as="geometry" />
        </mxCell>
        <mxCell id="8fI-mE4RS12vCGjMhUKt-153" value="队列及调度算法" style="rounded=0;whiteSpace=wrap;html=1;strokeWidth=2;fillColor=#ffffff;fontSize=14;" parent="1" vertex="1">
          <mxGeometry x="229.83" y="910" width="390.17" height="40" as="geometry" />
        </mxCell>
        <mxCell id="8fI-mE4RS12vCGjMhUKt-154" value="" style="endArrow=none;html=1;strokeWidth=2;fontSize=14;exitX=0.5;exitY=0;exitDx=0;exitDy=0;entryX=0.5;entryY=1;entryDx=0;entryDy=0;startArrow=classic;startFill=1;" parent="1" edge="1">
          <mxGeometry width="50" height="50" relative="1" as="geometry">
            <mxPoint x="264.58000000000004" y="840" as="sourcePoint" />
            <mxPoint x="264.58000000000004" y="750" as="targetPoint" />
          </mxGeometry>
        </mxCell>
        <mxCell id="8fI-mE4RS12vCGjMhUKt-155" value="" style="endArrow=none;html=1;strokeWidth=2;fontSize=14;exitX=0.5;exitY=0;exitDx=0;exitDy=0;entryX=0.5;entryY=1;entryDx=0;entryDy=0;startArrow=classic;startFill=1;" parent="1" edge="1">
          <mxGeometry width="50" height="50" relative="1" as="geometry">
            <mxPoint x="264.5799999999999" y="840" as="sourcePoint" />
            <mxPoint x="264.5799999999999" y="750" as="targetPoint" />
          </mxGeometry>
        </mxCell>
        <mxCell id="8fI-mE4RS12vCGjMhUKt-156" value="" style="endArrow=none;html=1;strokeWidth=2;fontSize=14;exitX=0.5;exitY=0;exitDx=0;exitDy=0;entryX=0.5;entryY=1;entryDx=0;entryDy=0;startArrow=classic;startFill=1;" parent="1" edge="1">
          <mxGeometry width="50" height="50" relative="1" as="geometry">
            <mxPoint x="344.6400000000001" y="840" as="sourcePoint" />
            <mxPoint x="344.6400000000001" y="750" as="targetPoint" />
          </mxGeometry>
        </mxCell>
        <mxCell id="8fI-mE4RS12vCGjMhUKt-158" value="S0" style="rounded=0;whiteSpace=wrap;html=1;strokeWidth=2;fillColor=#ffffff;fontSize=22;" parent="1" vertex="1">
          <mxGeometry x="1230" y="862" width="87" height="38" as="geometry" />
        </mxCell>
        <mxCell id="8fI-mE4RS12vCGjMhUKt-159" value="&lt;span style=&quot;font-size: 22px;&quot;&gt;S2&lt;/span&gt;" style="rounded=0;whiteSpace=wrap;html=1;strokeWidth=2;fillColor=#ffffff;fontSize=22;" parent="1" vertex="1">
          <mxGeometry x="1148" y="1057" width="82" height="42" as="geometry" />
        </mxCell>
        <mxCell id="8fI-mE4RS12vCGjMhUKt-160" value="&lt;span style=&quot;font-size: 22px;&quot;&gt;S1&lt;/span&gt;" style="rounded=0;whiteSpace=wrap;html=1;strokeWidth=2;fillColor=#ffffff;fontSize=22;" parent="1" vertex="1">
          <mxGeometry x="1148" y="958" width="82" height="40" as="geometry" />
        </mxCell>
        <mxCell id="8fI-mE4RS12vCGjMhUKt-161" value="&lt;span style=&quot;font-size: 22px;&quot;&gt;S3&lt;/span&gt;" style="rounded=0;whiteSpace=wrap;html=1;strokeWidth=2;fillColor=#ffffff;fontSize=22;" parent="1" vertex="1">
          <mxGeometry x="1230" y="1153" width="84" height="41" as="geometry" />
        </mxCell>
        <mxCell id="8fI-mE4RS12vCGjMhUKt-163" value="" style="image;html=1;image=img/lib/clip_art/networking/Router_Icon_128x128.png;strokeWidth=2;fillColor=#ffffff;fontSize=22;" parent="1" vertex="1">
          <mxGeometry x="1397" y="977" width="80" height="80" as="geometry" />
        </mxCell>
        <mxCell id="8fI-mE4RS12vCGjMhUKt-164" value="D0" style="rounded=0;whiteSpace=wrap;html=1;strokeWidth=2;fillColor=#ffffff;fontSize=22;" parent="1" vertex="1">
          <mxGeometry x="1635" y="995" width="86" height="44" as="geometry" />
        </mxCell>
        <mxCell id="8fI-mE4RS12vCGjMhUKt-165" value="" style="endArrow=classic;html=1;strokeColor=#000000;strokeWidth=2;fontSize=22;exitX=1;exitY=1;exitDx=0;exitDy=0;entryX=0;entryY=0.25;entryDx=0;entryDy=0;" parent="1" source="8fI-mE4RS12vCGjMhUKt-158" target="8fI-mE4RS12vCGjMhUKt-163" edge="1">
          <mxGeometry width="50" height="50" relative="1" as="geometry">
            <mxPoint x="1511" y="1036" as="sourcePoint" />
            <mxPoint x="1561" y="986" as="targetPoint" />
          </mxGeometry>
        </mxCell>
        <mxCell id="8fI-mE4RS12vCGjMhUKt-166" value="" style="endArrow=classic;html=1;strokeColor=#000000;strokeWidth=2;fontSize=22;exitX=1;exitY=0.5;exitDx=0;exitDy=0;entryX=0.006;entryY=0.381;entryDx=0;entryDy=0;entryPerimeter=0;" parent="1" source="8fI-mE4RS12vCGjMhUKt-160" target="8fI-mE4RS12vCGjMhUKt-163" edge="1">
          <mxGeometry width="50" height="50" relative="1" as="geometry">
            <mxPoint x="1511" y="1036" as="sourcePoint" />
            <mxPoint x="1561" y="986" as="targetPoint" />
          </mxGeometry>
        </mxCell>
        <mxCell id="8fI-mE4RS12vCGjMhUKt-167" value="" style="endArrow=classic;html=1;strokeColor=#000000;strokeWidth=2;fontSize=22;exitX=1;exitY=0.5;exitDx=0;exitDy=0;" parent="1" source="8fI-mE4RS12vCGjMhUKt-159" edge="1">
          <mxGeometry width="50" height="50" relative="1" as="geometry">
            <mxPoint x="1511" y="1036" as="sourcePoint" />
            <mxPoint x="1392" y="1022" as="targetPoint" />
          </mxGeometry>
        </mxCell>
        <mxCell id="8fI-mE4RS12vCGjMhUKt-168" value="" style="endArrow=classic;html=1;strokeColor=#000000;strokeWidth=2;fontSize=22;exitX=1;exitY=0;exitDx=0;exitDy=0;entryX=-0.035;entryY=0.673;entryDx=0;entryDy=0;entryPerimeter=0;" parent="1" source="8fI-mE4RS12vCGjMhUKt-161" target="8fI-mE4RS12vCGjMhUKt-163" edge="1">
          <mxGeometry width="50" height="50" relative="1" as="geometry">
            <mxPoint x="1511" y="1036" as="sourcePoint" />
            <mxPoint x="1561" y="986" as="targetPoint" />
          </mxGeometry>
        </mxCell>
        <mxCell id="8fI-mE4RS12vCGjMhUKt-169" value="" style="endArrow=classic;html=1;strokeColor=#000000;strokeWidth=2;fontSize=22;exitX=1;exitY=0.5;exitDx=0;exitDy=0;entryX=0;entryY=0.5;entryDx=0;entryDy=0;" parent="1" source="8fI-mE4RS12vCGjMhUKt-163" target="8fI-mE4RS12vCGjMhUKt-164" edge="1">
          <mxGeometry width="50" height="50" relative="1" as="geometry">
            <mxPoint x="1511" y="1036" as="sourcePoint" />
            <mxPoint x="1561" y="986" as="targetPoint" />
          </mxGeometry>
        </mxCell>
        <mxCell id="8fI-mE4RS12vCGjMhUKt-170" value="24.98%" style="text;html=1;strokeColor=none;fillColor=none;align=center;verticalAlign=middle;whiteSpace=wrap;rounded=0;fontSize=22;" parent="1" vertex="1">
          <mxGeometry x="1357" y="915" width="40" height="20" as="geometry" />
        </mxCell>
        <mxCell id="8fI-mE4RS12vCGjMhUKt-171" value="24.98%" style="text;html=1;strokeColor=none;fillColor=none;align=center;verticalAlign=middle;whiteSpace=wrap;rounded=0;fontSize=22;" parent="1" vertex="1">
          <mxGeometry x="1274" y="987" width="40" height="20" as="geometry" />
        </mxCell>
        <mxCell id="8fI-mE4RS12vCGjMhUKt-172" value="24.98%" style="text;html=1;strokeColor=none;fillColor=none;align=center;verticalAlign=middle;whiteSpace=wrap;rounded=0;fontSize=22;" parent="1" vertex="1">
          <mxGeometry x="1288" y="1053" width="40" height="20" as="geometry" />
        </mxCell>
        <mxCell id="8fI-mE4RS12vCGjMhUKt-173" value="24.98%" style="text;html=1;strokeColor=none;fillColor=none;align=center;verticalAlign=middle;whiteSpace=wrap;rounded=0;fontSize=22;" parent="1" vertex="1">
          <mxGeometry x="1357" y="1085" width="40" height="20" as="geometry" />
        </mxCell>
        <mxCell id="8fI-mE4RS12vCGjMhUKt-174" value="99.92%" style="text;html=1;strokeColor=none;fillColor=none;align=center;verticalAlign=middle;whiteSpace=wrap;rounded=0;fontSize=22;" parent="1" vertex="1">
          <mxGeometry x="1534" y="993" width="40" height="20" as="geometry" />
        </mxCell>
      </root>
    </mxGraphModel>
  </diagram>
</mxfile>
